<?xml version="1.0" encoding="UTF-8"?>
<svg id="Layer_2" data-name="Layer 2" xmlns="http://www.w3.org/2000/svg" viewBox="0 0 949.8 251.33">
  <defs>
    <style>
      .cls-1 {
        fill: #fff;
        stroke-width: 0px;
      }
    </style>
  </defs>
  <g id="Layer_1-2" data-name="Layer 1">
    <g>
      <path class="cls-1" d="M21.19,167.04h80.56c1.22,3.43.44,6.77.57,10.03.14,3.33.03,6.67.03,9.76-1.49,1.44-2.99.95-4.36.95-29.17.03-58.34.03-87.5.03-3.18,0-6.35,0-9.76,0-.24-1.02-.56-1.89-.63-2.78-.11-1.27-.04-2.55-.04-3.82,0-58.5,0-116.99.01-175.49,0-1.71-.29-3.47.31-4.99C.87.46,1.14.18,1.41.18,316.36.1,631.31.05,946.26,0c.93,0,1.86.12,2.63.17,1.3,1.44.84,2.95.84,4.31.03,14.34.02,28.69.02,43.03,0,45.27,0,90.53,0,135.8,0,1.39-.16,2.78-.25,4.3-.87.14-1.47.33-2.08.33-245.44.01-490.89.01-736.1.01-.43-.48-.8-.7-.82-.95-.6-6.35-.2-12.7-.21-18.77,1.52-1.41,3.02-1.01,4.41-1.01,31.24.04,62.48.15,93.72.14,65.83-.03,131.66-.15,197.48-.17,102.17-.04,204.34-.03,306.51-.04,36.98,0,73.96-.02,110.94-.03,1.57,0,3.15,0,4.97,0,.18-1.17.42-2.06.44-2.95.06-2.55.04-5.1.04-7.65,0-43.19,0-86.39-.01-129.58,0-1.88-.09-3.75-.13-5.29-.48-.42-.59-.55-.73-.62-.13-.07-.29-.13-.44-.13-300.77-.04-601.53-.07-902.3-.11-1.11,0-2.21,0-3.55,0-.23,1.05-.57,1.92-.59,2.81-.07,3.35-.03,6.69-.03,10.04,0,42.72,0,85.43.02,128.15,0,1.56.11,3.11.19,5.24Z"/>
      <path class="cls-1" d="M131.78,152.01c-.68-1.02-1.19-1.79-1.71-2.56-1.16-1.71-2.46-3.34-3.45-5.15-2.35-4.3-1.81-8.16,1.53-11.84.85-.94,1.85-1.75,2.78-2.62.92-.86,1.83-1.72,2.98-2.8-.74-.95-1.33-1.83-2.05-2.59-4.28-4.48-7.15-9.71-8.55-15.74-1.98-8.49.44-15.88,6.39-21.9,7.53-7.62,16.87-10.49,27.5-8.91,2.33.35,4.64.87,7.12,1.35,1.98-2.69,2.18-5.96,3.25-8.88,1.03-2.81,1.31-5.89,3.03-8.7,2.89.44,5.39,1.87,8.03,2.81,2.5.88,5.22,1.39,7.56,3.46-3.46,6.06-7.64,11.63-10.97,17.81.4.65.63,1.28,1.07,1.67,11.5,10.25,8.5,29.78-5.06,37.49-4.98,2.83-10.27,4.22-15.88,4.62-2.85.2-5.73.07-8.59.19-2.99.12-5.46,2.62-5.34,5.57.13,3.26,1.39,5.11,4.95,4.78,4.74-.43,9.53-.38,14.3-.41,4.33-.03,8.52.99,12.67,2.12,3.9,1.06,7.21,3.23,10.4,5.67,6.17,4.73,10.14,19.06,2.95,27.78-3.01,3.65-6.86,6.15-11.24,7.83-4.64,1.77-9.49,2.75-14.43,2.99-6.85.33-13.69.15-20.49-.89-4.62-.7-8.95-2.13-12.8-4.89-7.18-5.16-8.02-12.85-3.86-19.27,1.37-2.11,3.22-3.92,4.9-5.83.92-1.05,1.93-2.02,3.01-3.14ZM155.8,154.48s0,.02,0,.03c-3.67,0-7.34-.12-11,.03-3.5.15-5.94,2.42-6.44,5.9-.25,1.72-.29,3.51-.13,5.24.37,4,2.8,6.4,6.87,6.5,6.69.17,13.39.05,20.08.11,4.86.04,7.3-3.01,7.72-7.37.12-1.25.05-2.56-.15-3.8-.7-4.34-3.04-6.46-7.39-6.6-3.18-.11-6.37-.02-9.56-.02ZM152.63,90.36c-7.02.04-13.15,6.09-12.97,13.2.2,7.83,5.25,13.39,13.05,13.61,6.9.2,12.72-6.04,12.99-13.22.22-5.87-5.35-14.1-13.07-13.59Z"/>
      <path class="cls-1" d="M253.47,149.58c-3.45.95-14.67,1.02-19.24.21-1.09-1.2-.67-2.7-.67-4.08-.05-10.83-.07-21.67-.06-32.5.01-19.76.04-39.52.09-59.27,0-1.71-.33-3.49.42-5.09,3.87-.75,15.27-.79,19.32-.03.54,6.24.23,12.57.29,18.89.06,6.35.01,12.71.01,18.94,1.19.73,1.6-.09,2.1-.65,1.9-2.14,3.52-4.61,5.73-6.36,6.32-5.01,13.46-6.35,21.06-3.29,6.01,2.42,9.08,7.27,9.97,13.53.31,2.2.27,4.45.29,6.68.19,16.25.37,32.5.54,48.75.02,1.42,0,2.84,0,4.26-3.49,1.54-6.87.8-10.15.84-3.13.04-6.33.51-9.36-.37-.9-1.83-.54-3.61-.55-5.33-.04-12.27,0-24.54-.06-36.81-.02-3.18-.36-6.36-.48-9.54-.09-2.45-1.26-4.23-3.19-5.58-1.51-1.06-3.05-1.37-4.94-.78-3.93,1.24-6.95,3.82-10,6.36-.53.44-.8,1.37-.89,2.12-.16,1.26-.1,2.54-.1,3.82-.05,13.54-.09,27.09-.13,40.63,0,1.58,0,3.16,0,4.64Z"/>
      <path class="cls-1" d="M54.61,71.61c-.48-5.61-1.1-10.8-.9-15.91,3.05-2.1,6.26-3.04,9.52-3.77,10.34-2.32,20.54-2.36,30.36,2.26,2.01.95,4.02,1.97,5.82,3.25,8.85,6.29,11.98,14.94,10.15,25.49-.89,5.17-3.25,9.6-7.05,13.28-1.69,1.64-3.66,3.07-4.79,5.33,1.72,1.03,3.38,1.98,4.98,2.99,2.93,1.87,4.89,4.56,6.09,7.76,1.98,5.3,2.57,10.83,2.22,16.45-.2,3.26-1.58,6.15-3.17,8.92-4.55,7.93-11.28,12.72-20.36,14.28-8.77,1.5-17.46.85-26.14-.6-2.81-.47-5.57-1.21-8.55-1.88-.89-5.48.88-10.67.96-16.11,2.51-.22,4.49.33,6.49.69,2.35.43,4.68.96,7.05,1.27,5.64.74,11.11-.08,16.4-2.14,3.07-1.2,5.45-3.28,7.16-6.08,2.7-4.43,1.84-9.63-2.2-12.87-3.3-2.65-7.1-4.27-11.34-4.55-3.17-.21-6.36-.14-9.54-.17-1.59-.02-3.18,0-4.94,0-1.34-2.49-.55-5.23-.6-7.84-.05-2.48-.51-5.06.58-7.48.6-.08,1.09-.27,1.52-.18,4.82.99,9.53-.18,14.25-.76,3-.37,5.81-1.61,8.26-3.51,5.44-4.21,5.94-10.92,1.1-15.77-3.56-3.57-8.06-5.02-12.94-5.38-5.61-.41-11.13.05-16.48,1.98-1.15.41-2.36.66-3.88,1.08Z"/>
      <path class="cls-1" d="M520.08,117.08c-6.22.58-11.94.19-17.63.27-5.71.09-11.42-.09-17.04.13-1.36,5.28-.21,12,2.52,15.7,2.17,2.95,5.31,4.01,8.72,4.23,4.99.32,9.82-.6,14.48-2.42,2.19-.86,4.42-1.63,6.61-2.43,1.26,3.23,2.38,10.71,2.2,14.47-4.35,1.72-8.91,3.04-13.59,3.9-7.79,1.43-15.47,1.29-23.09-1.17-8.56-2.76-13.59-8.77-15.46-17.26-1.13-5.1-1.67-10.4-1.8-15.63-.2-7.63-.01-15.31,1.64-22.82.54-2.46,1.55-4.84,2.52-7.17,2.3-5.54,6.68-8.82,12.22-10.61,5.2-1.68,10.51-2.56,15.98-1.33,1.55.35,3.17.4,4.68.86,9.39,2.83,14.55,9.47,16.1,18.85,1.19,7.23.97,14.58.96,22.44ZM503.25,106.6c.17-1.19.42-1.96.37-2.7-.22-3-.49-6-.85-8.99-.13-1.09-.46-2.19-.91-3.19-1.57-3.44-4.6-4.8-8.09-4.86-3.42-.05-6.16,1.54-7.45,4.89-1.8,4.66-1.94,9.48-1.29,14.48.84.15,1.45.36,2.05.36,5.23.03,10.45.01,16.17.01Z"/>
      <path class="cls-1" d="M826.04,117.36h-34.33c-.22,1.16-.61,2.06-.52,2.91.3,2.84.46,5.75,1.25,8.47,1.72,5.97,5.39,8.6,11.58,8.73,4.83.1,9.5-.74,13.98-2.58,1.47-.6,2.92-1.28,4.41-1.8.7-.24,1.5-.21,2.55-.34.63,4.75,1.24,9.28,1.86,13.9-.68.43-1.16.89-1.72,1.06-3.35,1-6.68,2.11-10.1,2.84-8.2,1.75-16.34,1.87-24.51-.6-9.63-2.92-14.88-9.65-16.53-19.09-1.99-11.35-1.68-22.83-.33-34.28.54-4.55,2.24-8.62,4.59-12.43,3.14-5.08,8.16-7.36,13.69-8.8,5.53-1.45,11.07-1.16,16.55.1,7.13,1.64,12.23,5.9,15.3,12.54,1.35,2.92,2.21,6.01,2.33,9.2.23,6.05.26,12.1.36,18.15,0,.45-.17.91-.4,2ZM809.59,106.39c.81-5,.4-10.33-.8-13.86-1.62-4.77-8.1-7.55-13.02-4.39-2.31,1.48-3.41,3.78-3.81,6.35-.45,2.97-.65,5.99-.85,9-.06.88.25,1.79.38,2.57,3.91.71,12.81.87,18.1.34Z"/>
      <path class="cls-1" d="M631.02,150.07c-6.81.32-12.98.32-19.24.13-.48-1.08-.97-1.89-1.22-2.77-6.13-21.57-12.24-43.14-18.33-64.71-.51-1.8-.83-3.66-1.23-5.46,3.33-1.05,13.3-1.22,18.74-.37,1.91,4.13,2.4,8.76,3.68,13.16,1.24,4.28,2.28,8.61,3.47,12.9,1.2,4.35,1.94,8.83,3.57,14.06,2.1-4,2.65-7.4,3.53-10.68.87-3.22,1.6-6.48,2.42-9.72.86-3.39,1.77-6.77,2.65-10.16.83-3.21,1.26-6.53,2.69-9.47,3.93-.72,14.13-.74,18.2-.06.07.44.31.94.2,1.35-6.32,23.8-12.67,47.59-19.13,71.81Z"/>
      <path class="cls-1" d="M755.29,97.73c-.41.15-.84.43-1.28.44-4.45.03-8.9.02-13.62.02-.46-1.16-.88-2.32-1.37-3.46-1.26-2.91-3.37-4.4-6.66-4.47-5.74-.11-9.01,2.55-9.45,8.34-.76,10.01-.65,20.04-.04,30.06.06.95.14,1.92.41,2.82.92,3,2.84,5.01,6.09,5.22,1.88.12,3.84.1,5.67-.32,2.3-.53,3.86-2.15,4.42-4.53.37-1.54.63-3.1.93-4.6,3.46-.66,12.56-.8,16.14-.26,1.7,8.43-2.6,17.86-9.87,21.87-4.16,2.29-8.68,3.04-13.31,3.24-4.46.2-8.91.02-13.23-1.26-6.8-2.01-11.65-6.22-14.65-12.68-2.27-4.89-2.9-10.08-3.1-15.33-.33-8.27-.4-16.57.58-24.8.83-6.98,3.21-13.34,8.94-17.87,1.84-1.46,3.92-2.84,6.12-3.58,8.23-2.77,16.54-2.93,24.74.29,8.63,3.39,13.36,11.28,12.54,20.86Z"/>
      <path class="cls-1" d="M442.56,93.86c-1.98-1.09-4.08-2.18-6.11-3.39-3.17-1.89-6.6-2.19-10.14-1.84-.92.09-1.87.41-2.69.86-3.12,1.72-3.7,5.62-1.12,8.04,1.14,1.07,2.55,1.91,3.94,2.65,2.94,1.57,6.02,2.91,8.93,4.54,3.32,1.86,6.69,3.71,9.73,5.99,4.94,3.69,7.88,8.7,8.2,14.99.11,2.22.14,4.47-.07,6.68-.66,7-4.18,12.19-10.18,15.8-4.5,2.71-9.43,3.75-14.58,3.91-8.22.27-15.71-2.04-22.46-6.72-.87-.61-1.56-1.48-2.26-2.15,1.54-3.95,5.29-9.65,8.63-13.07,1.39,1.17,2.83,2.35,4.23,3.58,3.84,3.39,8.33,4.42,13.32,3.86,2.73-.3,4.3-1.89,5.16-4.31.84-2.36.08-4.56-2.14-6.32-.87-.69-1.85-1.23-2.83-1.76-3.23-1.73-6.49-3.38-9.71-5.13-3.79-2.06-7.34-4.45-10.57-7.33-4.31-3.84-6.32-8.62-6.52-14.33-.41-11.67,6.56-19.83,16.13-22.66,4.12-1.22,8.37-1.56,12.75-.94,5.91.84,11.5,2.42,16.68,5.39.68.39,1.3.89,1.9,1.3-1.06,3.59-4.55,8.84-8.23,12.34Z"/>
      <path class="cls-1" d="M891.11,81.56c-1.58,3.78-5.18,9.15-8.24,12.41-2.17-1.18-4.45-2.31-6.61-3.63-3.03-1.85-6.32-2.06-9.69-1.73-1.06.1-2.2.5-3.08,1.09-2.87,1.92-3.27,5.34-.85,7.77,1.1,1.1,2.49,1.97,3.88,2.71,3.09,1.64,6.31,3.03,9.37,4.72,2.92,1.6,5.82,3.29,8.54,5.21,11.74,8.29,11.05,23.37,5.7,31.58-3.58,5.5-9.04,8.61-15.3,9.77-11.01,2.05-21.18-.31-30.16-7.19-.36-.27-.59-.71-.86-1.04,1.82-4.1,5.56-9.84,8.4-12.87,2.16.92,3.71,2.8,5.58,4.19,3.8,2.83,8.01,3.79,12.63,2.94,3.35-.62,5.24-3.16,5.02-6.49-.1-1.5-.62-2.82-1.89-3.69-1.32-.89-2.68-1.72-4.07-2.49-3.9-2.16-7.88-4.17-11.71-6.43-2.32-1.37-4.5-3-6.63-4.66-6.75-5.25-8.67-12.35-7.36-20.45,1.54-9.51,8.94-16.56,18.48-18.11,10.39-1.7,19.81.8,28.85,6.38Z"/>
      <path class="cls-1" d="M352.49,99.55c-3.19.48-6.15,1.02-9.12,1.35-4.13.46-7.53,2.47-10.76,4.82-.68.5-1.22,1.5-1.38,2.35-.26,1.39-.18,2.86-.18,4.29-.01,10.68-.01,21.36-.02,32.03,0,1.74,0,3.48,0,5.29-3.49,1.4-6.85.65-10.11.75-3.15.1-6.32.18-9.7-.18-.15-.97-.37-1.72-.37-2.47-.01-22.79,0-45.58.02-68.37,0-.78.14-1.56.22-2.4,2.02-1.15,4.12-.53,6.13-.59,2.07-.06,4.14-.03,6.21.03,2.03.06,4.13-.28,6.13.6.74,4.84-.1,9.58.55,14.57,1.73-.9,2.02-2.41,2.83-3.49,2.01-2.66,3.75-5.58,6.05-7.96,3.56-3.69,8.09-5.36,13.26-5.14.65,3.52.81,18.08.25,24.51Z"/>
      <path class="cls-1" d="M538.73,76.68c6.12-.46,11.96-.15,18.01-.21.25,1.17.58,2.05.59,2.94.06,3.97.03,7.94.03,11.82,1.36.56,1.59-.41,1.9-1,1.89-3.72,4.22-7.11,7.17-10.07,3.68-3.7,8.26-5.01,13.22-5.47.82,3.56.95,19.47.29,24.57-1.13,1.15-2.66.75-4.03.85-5.84.42-11.27,1.95-15.94,5.64-.37.29-.7.63-1.3,1.18-.05,1.55-.16,3.28-.16,5-.02,10.99,0,21.98-.02,32.96,0,1.56-.12,3.12-.19,4.76-2.36.92-4.6.47-6.78.56-2.07.08-4.14.1-6.21.04-2.18-.06-4.43.49-6.51-.41-.54-3.48-.63-68.01-.06-73.17Z"/>
      <path class="cls-1" d="M666.49,76.76c4.68-.49,14.56-.44,18.15.09,1.1,1.18.77,2.68.78,4.07.03,7.95.01,15.9.02,23.85,0,13.35.03,26.71.03,40.06,0,1.56-.12,3.11-.18,4.6-.69.31-1.1.66-1.52.67-5.24.1-10.49.16-15.73.19-.6,0-1.2-.24-1.52-.31-.35-.35-.5-.44-.57-.57-.07-.13-.1-.31-.1-.46-.03-23.37-.06-46.74-.07-70.11,0-.47.12-.94.22-1.4.03-.14.17-.25.49-.67Z"/>
      <path class="cls-1" d="M298.11,234.15c.58.55,1.01.97,1.46,1.37,4.09,3.61,4.06,10-.15,13.3-.83.65-1.98,1.2-3.01,1.25-5.55.26-11.11.36-16.67.48-.27,0-.54-.3-.81-.45-.65-3.87-.69-25.1,0-30.16.6-.16,1.32-.54,2.04-.53,4.13.04,8.28-.03,12.39.33,6.87.59,9.56,5.82,6.31,11.91-.44.82-.99,1.58-1.58,2.51ZM284.41,237.85c-.22,2.7-.59,5.02.32,7.41,3.75.35,7.32.33,10.79-1.13.26-1.03.65-1.94.69-2.86.09-2.11-.88-3.32-2.94-3.62-2.81-.41-5.65-.7-8.86.2ZM284.43,231.07c3.22.96,6.04.33,8.83-.11,1.5-.24,2.3-1.62,2.24-3.22-.05-1.4-.76-2.17-2.44-2.38-1.89-.24-3.8-.44-5.7-.49-.89-.02-1.79.35-2.62.53-.76,1.91-.66,3.61-.31,5.66Z"/>
      <path class="cls-1" d="M788.25,219.64c2.13-.1,3.69-.17,5.49-.25,4.11,5.87,6.87,12.47,11.33,19.01.93-6.61.31-12.45.8-18.12,2.28-.84,2.28-.85,4.87-.44.88,3.21.27,6.55.36,9.84.1,3.5.04,7.01.02,10.51-.01,3.31.11,6.63-.11,9.79-2.1.91-3.8.72-5.71.3-2.19-2.6-3.46-5.9-5.28-8.86-1.74-2.81-3.06-5.89-5-8.42-1.17.15-1.14.82-1.15,1.43-.03,3.82-.04,7.64-.06,11.47,0,1.26,0,2.51,0,3.66-2.44,1.05-2.44,1.08-5.31.48-.82-3.2-.28-6.54-.37-9.84-.09-3.34-.02-6.69,0-10.03.02-3.32.06-6.65.1-10.54Z"/>
      <path class="cls-1" d="M116.69,250.22c-2.03.66-3.88.48-5.95-.13-1.01-1.84-2.05-3.79-3.13-5.73-1.08-1.95-2.15-3.91-3.3-5.82-1.11-1.85-1.88-3.95-3.8-6.04-1.25,6.18-.23,11.89-1,17.48-1.7.78-3.2.75-5.07.01-.53-3.18-.17-6.51-.22-9.81-.06-3.35-.07-6.69.01-10.04.08-3.32-.26-6.67.34-10.11.84-.25,1.57-.48,2.32-.7,1.58-.47,2.82-.03,3.69,1.38.58.95,1.19,1.89,1.74,2.85,2.22,3.86,4.42,7.75,6.66,11.6.54.93,1.19,1.8,1.96,2.96,1.13-1.38.6-2.67.68-3.83.08-1.11.02-2.23.02-3.35,0-1.27.01-2.55.01-3.82,0-1.12-.03-2.23,0-3.35.04-1.24.13-2.49.2-3.84,1.75-.58,3.25-.77,4.96-.06.95,3.21.29,6.55.38,9.85.1,3.5.08,7.01-.02,10.52-.09,3.29.42,6.64-.47,9.96Z"/>
      <path class="cls-1" d="M743.03,227.27c-1.3,1.27-2.69,1.84-4.77,1.75-.67-.76-1.44-1.76-2.33-2.65-3.45-3.44-10.05-2.26-11.88,2.62-1.6,4.27-1.45,8.5.49,12.53,1.99,4.13,7.75,5.47,11.49,2.85,1.41-.98,2.08-2.35,1.38-4.45-1.56-.22-3.23-.45-5.17-.71-.87-1.4-1.6-2.87-.66-4.63,3.96-.79,7.86-.81,11.78-.09.53,2.43.8,9.19.47,10.83-.27,1.34-1.05,2.33-2.17,3.01-5.55,3.34-11.37,4-17.34,1.31-3.08-1.39-4.85-4.15-5.9-7.22-1.7-4.96-1.56-10.03-.12-15.06.54-1.88,1.66-3.42,3.14-4.71,3.58-3.12,7.77-4.34,12.42-3.7,4.05.56,7.07,2.76,8.85,6.5.25.54.23,1.2.34,1.83Z"/>
      <path class="cls-1" d="M653.61,239.14c-1.34.09-2.28.21-3.22.21-2.22,0-2.8-.52-3-2.76-.06-.61.11-1.24.2-2.05,3.94-1.09,7.83-.57,11.98-.37.78,4.05.74,7.96.16,11.86-.12.81-.89,1.76-1.63,2.19-5.34,3.16-10.99,4.07-16.9,1.75-3.75-1.47-5.5-4.72-6.74-8.23-1.71-4.83-1.25-9.72.15-14.55.65-2.22,2.11-3.91,3.97-5.23,4.12-2.95,8.57-3.89,13.54-2.48,2.99.84,4.98,2.71,6.49,5.25.57.96,1.06,2.08.16,3.1-1,1.14-3.21,1.43-4.36.6-.77-.55-1.4-1.29-2.11-1.92-4.31-3.8-10.48-2.23-12.24,3.27-1.19,3.73-1.06,7.58.55,11.21,2.07,4.69,7.82,6.18,12.04,3.2,1.67-1.18,1.81-2.8.97-5.05Z"/>
      <path class="cls-1" d="M129.54,250.21c-.48-6.21-.29-26.6.23-30.04.24-.19.49-.54.73-.54,4.6.01,9.21-.1,13.79.17,3.05.18,5.41,2.02,6.7,4.76,3.22,6.85,3.37,13.79.01,20.68-1.53,3.14-4.07,4.79-7.56,4.95-3.5.16-6.99.35-10.49.43-1.06.03-2.14-.26-3.41-.43ZM135.41,225.16c-.53,3.65-.37,6.98-.3,10.29.07,3.26-.59,6.6.55,9.85,2.44.35,4.62.03,6.81-.42,1.71-.35,2.99-1.25,3.58-2.82,1.82-4.81,1.81-9.67-.25-14.4-.4-.91-1.46-2-2.35-2.14-2.47-.37-4.98-1.05-8.05-.37Z"/>
      <path class="cls-1" d="M255.11,227.82c-2.52,1.04-4.55.92-6.49-1.22-2.49-2.76-5.01-3.04-7.54-1.28-1.62,1.13-1.67,2.89,0,3.83,1.38.77,2.88,1.33,4.34,1.92,2.06.84,4.18,1.53,6.19,2.46,2.68,1.24,4.15,3.57,4.41,6.39.48,5.3-1.17,9.7-7.42,10.92-2.67.52-5.34.44-8.03-.21-3.88-.93-5.82-3.63-7.02-7.1-.5-1.45,0-2.63,1.18-3.27,1.23-.67,2.52-.54,3.46.53.73.83,1.36,1.76,1.94,2.7.92,1.49,2.21,2.22,3.96,2.15.95-.04,1.91,0,2.86-.11,1.91-.22,3.11-1.5,3.34-3.45.16-1.4-.54-2.57-2.23-3.28-1.76-.73-3.6-1.26-5.37-1.96-1.62-.64-3.31-1.22-4.77-2.14-2.97-1.88-4.04-4.77-3.75-8.22.27-3.19,2.11-5.22,4.85-6.57.71-.35,1.47-.65,2.24-.81,3.2-.65,6.38-.51,9.31.99,3.04,1.55,4.78,4.03,4.53,7.72Z"/>
      <path class="cls-1" d="M604.93,233.04c-.79,5.6.08,11.32-.61,17.25-1.54.13-2.88.25-4.18.36-.36-.69-.7-1.08-.76-1.52-.14-1.1-.21-2.22-.21-3.33,0-7.33.02-14.65.08-21.98.01-1.4-.28-2.89.94-4.47,1.32.07,2.86.15,4.63.24,3.58,6.23,7.11,12.38,10.9,18.97,1.29-2.41.78-4.49.88-6.46.09-1.91.05-3.82.08-5.73.03-2.05.08-4.11.12-6.05,1.43-1.27,2.8-1,4.39-.61.17.68.51,1.43.52,2.17.06,8.92.08,17.84.09,26.75,0,.45-.21.91-.31,1.33-1.16.99-2.44.56-3.68.53-1.66-.04-2.55-1.06-3.28-2.38-1.93-3.48-3.88-6.94-5.83-10.42-.92-1.64-1.84-3.28-2.75-4.92-.33.09-.67.18-1,.27Z"/>
      <path class="cls-1" d="M367.54,227.69c-.59.23-1.01.51-1.45.56-1.1.12-2.21.13-3.99.21-.13-.24-.42-.82-.76-1.36-.96-1.56-2.19-2.72-4.17-2.77-2.2-.06-4.03.67-5.63,2.6.56.73.98,1.64,1.69,2.09,1.19.77,2.54,1.29,3.87,1.83,1.47.59,3.01,1.03,4.48,1.62,5.63,2.27,7.53,5.7,6.5,11.66-.5,2.89-2.11,4.95-4.86,6-4.04,1.54-8.11,1.4-12.14-.04-1.72-.61-3.01-1.85-3.82-3.44-.78-1.53-1.33-3.17-1.98-4.76,1.29-1.54,2.69-2.04,4.61-1.95.83,1.21,1.64,2.55,2.6,3.78,1.57,2.01,6.14,2.69,8.28,1.3,2.27-1.47,2.3-4.63-.06-5.86-1.68-.88-3.53-1.43-5.3-2.15-1.62-.65-3.31-1.17-4.82-2.02-3.25-1.83-4.51-4.81-4.26-8.44.24-3.41,2.32-5.49,5.3-6.74,3.9-1.65,7.8-1.41,11.52.54,2.9,1.52,4.34,4.02,4.39,7.34Z"/>
      <path class="cls-1" d="M424.96,239.79c.8,1.38,1.42,2.48,2.07,3.56.89,1.48,2.19,2.27,3.94,2.26.95,0,1.92.04,2.86-.05,1.82-.18,2.85-1.17,3.2-2.97.34-1.75-.25-2.96-2.12-3.77-1.75-.76-3.59-1.3-5.36-2.01-1.47-.59-3.01-1.12-4.34-1.95-3.13-1.96-4.49-4.91-3.98-8.57.49-3.5,2.6-5.69,5.93-6.78,3.67-1.2,7.27-.9,10.68.73,2.79,1.33,3.96,3.95,4.75,6.85-1.17,1.59-2.87,1.39-4.37,1.46-1.28.06-1.73-1.2-2.46-2.02-2.16-2.45-4.8-2.85-7.67-1.27-1.81,1-2,2.71-.26,3.68,1.66.92,3.46,1.58,5.22,2.32,1.9.81,3.9,1.42,5.7,2.41,3.52,1.92,4.94,5.14,4.4,9.28-.55,4.16-2.68,6.66-6.68,7.72-1.07.28-2.19.48-3.29.51-5.67.16-10.82-.57-13.05-9.29,1.07-1.45,2.67-1.88,4.83-2.07Z"/>
      <path class="cls-1" d="M335.39,245.76v4.15c-3.41.84-15.93,1.03-21.2.35-1.07-3.18-.39-6.52-.5-9.8-.12-3.5-.06-7-.02-10.5.03-3.31-.16-6.63.15-9.83,3.52-.93,14.62-1.11,20.74-.4.92,1.42.61,2.92,0,4.56-4.79,1.1-9.8-.26-14.79,1.07-.12.95-.3,1.86-.34,2.78-.04.79.08,1.58.14,2.66,1.05.18,2.09.47,3.14.51,3.47.11,6.95.13,10.37.18,1.04,1.77.74,3.3.38,5.02-4.33,1.03-8.82-.05-13.34.78-1.26,2.4-.59,4.92-.61,7.64.92.2,1.8.54,2.69.56,3.18.08,6.36.04,9.55.07,1.08.01,2.17.12,3.63.2Z"/>
      <path class="cls-1" d="M187.84,243.75c-.9,2.24-1.71,4.28-2.54,6.35-1.96.74-3.77.55-5.77-.1.24-1.03.37-1.97.68-2.84,2.74-7.78,5.51-15.54,8.27-23.31.16-.45.33-.89.51-1.33,1.13-2.77,1.78-3.15,4.57-3.17,2.04-.01,3.23.89,3.9,2.77,1.69,4.78,3.43,9.55,5.17,14.31,1.41,3.87,2.86,7.73,4.27,11.61.21.58.29,1.2.46,1.9-2.1,1.04-4.06.74-6.1.18-.82-2.14-1.61-4.19-2.44-6.37h-10.97ZM189.91,237.59q3.88.65,6.65-.39c-.91-2.79-1.82-5.59-2.87-8.82-2.2,3.02-3.29,5.97-3.78,9.21Z"/>
      <path class="cls-1" d="M708.06,250.07c-1.76.77-3.58.82-5.73.1-.9-2-1.85-4.13-2.87-6.4h-10.58c-1.76,1.6-1.37,4.14-2.67,6.18-1.81.82-3.8.63-5.83.08,1.05-4.32,9.18-26.83,10.85-30.05,5.29-1.32,5.83-1.15,7.54,3.46,3.16,8.49,6.2,17.03,9.28,25.55.1.28.01.62.01,1.08ZM693.66,228.13c-1.17,3.41-2.17,6.33-3.24,9.43,2.44.56,4.55.88,6.82,0-.33-3.35-1.61-6.18-3.58-9.43Z"/>
      <path class="cls-1" d="M510.91,250.16c-2.52.41-4.37.55-6.33-.18-.87-2.05-1.74-4.08-2.66-6.24h-10.62c-1.66,1.78-1.55,4.45-3.15,6.57-.78.08-1.7.25-2.63.26-.77.01-1.55-.15-2.14-.22-.89-.91-.44-1.69-.2-2.38,2.84-8.11,5.71-16.21,8.58-24.31.16-.45.4-.87.53-1.33.74-2.69,2.28-3.08,4.69-3.02,1.8.04,2.95.89,3.57,2.6,2.05,5.69,4.14,11.37,6.22,17.04,1.31,3.56,2.63,7.12,4.14,11.2ZM496.92,228.71c-2.41,2.9-3.42,5.59-3.5,9.21,2.12.14,4.24.54,6.58-.48-1.06-3-2.04-5.78-3.08-8.73Z"/>
      <path class="cls-1" d="M755.81,250.25c-.7-4.38-.7-25.78-.02-30.4,2.02-.92,4.26-.39,6.43-.49,2.38-.1,4.77-.06,7.15-.05,2.2.01,4.4.07,6.91.11.14,1.64.26,2.99.37,4.33-.61.33-1.01.72-1.42.74-2.7.13-5.4.17-8.09.27-1.73.06-3.45.17-5.24.26-1.02,2.02-.52,3.86-.64,5.97,4.79.75,9.42-.02,14.1.68v4.78c-1.03.16-2.07.42-3.13.45-2.54.08-5.09.04-7.63.1-.92.02-1.84.18-2.92.29-.69,2.68-.52,5.14-.23,7.83,5.09.99,10.19-.02,15.12.62,1.03,1.45.83,2.78.4,4.11-3.63.82-15.88,1.07-21.15.42Z"/>
      <path class="cls-1" d="M842.04,239.65c2.21-.11,3.77.76,5.06,2.14-2.65,7.75-8.14,10.89-15.42,9.01-2.58-.67-4.57-2.07-6.01-4.34-2.76-4.38-3.47-9.17-2.9-14.19.29-2.52.94-4.96,2.23-7.23,4.55-8.03,15.94-8.44,20.92-.68.5.78.83,1.68,1.29,2.64-1.29,1.83-3.05,2.16-5.23,2.11-.7-.93-1.37-2-2.23-2.9-2.64-2.77-7.47-2.25-9.46,1.03-.56.93-.93,2.02-1.18,3.09-.74,3.14-.68,6.32-.04,9.47.82,4.02,3.18,5.87,6.94,5.79,1.77-.04,3.02-.77,3.88-2.28.7-1.23,1.43-2.44,2.14-3.66Z"/>
      <path class="cls-1" d="M665.78,64.04c-.05-5.59-.14-10.65.03-15.62,3.35-1.02,14.07-1.2,19.03-.39.8,3.32.92,10.78.21,15.75-.99.17-2.06.53-3.12.51-5.2-.11-10.43.46-16.15-.25Z"/>
      <path class="cls-1" d="M539.9,219.94v3.91c-.6.27-1.01.6-1.44.62-2.22.11-4.44.14-6.66.22-1.57.05-3.14.12-4.74.19-1.36,2.23-.84,4.38-.62,6.78,3.77.98,7.63,0,11.25.68q.5,2.46,0,4.73c-1.76.72-3.69.4-5.57.5-1.73.09-3.47.1-4.9.13-1.41,1.26-1.04,2.61-1.1,3.83-.14,2.82.23,5.68-.29,8.61-1.85.62-3.47.63-5.04-.03-.62-4.06-.62-26.01-.03-30.02,3.3-.9,14.16-1.01,19.14-.13Z"/>
      <path class="cls-1" d="M556.53,250.14c-1.72.73-3.23.68-4.97.04-.16-.49-.5-1.06-.51-1.64-.02-8.89-.01-17.79.02-26.68,0-.61.2-1.21.3-1.73,3.31-.94,13.76-1.07,19.1-.27.83,1.24.48,2.61.16,4.19-4.22,1.32-8.73,0-12.97.94q-.98,2.82-.39,6.74c3.6.85,7.44-.08,11.32.59.36,1.69.52,3.17-.22,4.75-1.87.75-3.79.36-5.66.45-1.72.08-3.45.1-5.19.15-1.3,4.28.07,8.5-.98,12.47Z"/>
      <path class="cls-1" d="M856.23,219.98c5.71-1.87,6.2-.53,8.2,2.87.8,1.37,1.5,2.8,2.26,4.2.68,1.24,1.38,2.48,2.19,3.94,3.4-3.46,4.25-8.35,7.66-11.82,1.6.12,3.28.25,5.34.41-.36.96-.54,1.68-.89,2.31-2.33,4.16-4.61,8.35-7.09,12.43-1.29,2.13-1.89,4.29-1.85,6.76.05,2.99.25,6-.14,8.91-1.97.93-3.65.64-5.54.1-.15-.89-.4-1.79-.43-2.7-.05-1.75-.04-3.5.05-5.25.16-3.11-.54-5.93-2.23-8.61-1.86-2.96-3.49-6.06-5.19-9.12-.77-1.38-1.49-2.79-2.35-4.42Z"/>
      <path class="cls-1" d="M466.54,250c-1.88.94-3.52.93-5.42.2-.6-8.27.12-16.51-.31-24.86-2.83-.28-5.33-.52-7.71-.76-1.14-1.64-.74-3.14-.58-4.78.8-.19,1.4-.44,2-.44,6.21-.02,12.41,0,18.62.03.6,0,1.2.3,2.1.54-.08,1.44-.16,2.78-.25,4.33-2.79.38-5.27.72-7.98,1.09-.13,1.14-.34,2.21-.35,3.27-.02,5.57.01,11.14,0,16.71,0,1.56-.08,3.13-.12,4.66Z"/>
      <path class="cls-1" d="M391.96,249.88c-1.88,1.03-3.54,1.01-5.52.48-.1-1.16-.26-2.23-.27-3.3-.03-5.89,0-11.78-.03-17.66,0-1.39-.19-2.77-.3-4.4-2.74-.21-5.21-.4-7.99-.61-.16-1.51-.29-2.87-.42-4.06.53-.37.78-.67,1.05-.71,3.57-.42,18.01-.28,21.39.18.12.1.34.2.35.31.14,1.21.25,2.43.37,3.61-.67.35-1.06.7-1.49.75-2.19.26-4.4.45-6.82.68-.14,1.26-.36,2.32-.36,3.37-.02,5.57.02,11.14.04,16.71,0,1.58,0,3.16,0,4.65Z"/>
      <path class="cls-1" d="M581.98,219.64c1.75-.59,3.38-.33,4.97.28.48,4.39.42,26.8-.11,30.47-1.45.13-2.99.27-4.65.42-.27-.85-.61-1.42-.61-2-.02-9.24-.01-18.48.02-27.72,0-.44.23-.88.39-1.45Z"/>
      <path class="cls-1" d="M76.92,250.02c-.53-5.84-.39-26.2.19-30.03,1.39-.85,2.94-.69,4.7-.36.16.52.49,1.1.49,1.68.04,9.08.04,18.16.03,27.24,0,.46-.17.92-.33,1.69-1.6.56-3.22.56-5.09-.24Z"/>
      <path class="cls-1" d="M164.48,219.7c2-.13,3.52-.23,5.13-.34,1.01,3.58.47,6.93.56,10.23.1,3.5.05,7.01.02,10.52-.03,3.31.17,6.64-.16,9.8-1.82,1.05-3.35.81-4.99.35-.18-.39-.53-.81-.53-1.23-.03-9.55-.02-19.1-.02-29.33Z"/>
      <path class="cls-1" d="M219.29,226.84q-3.25-3.34-1.94-7.09c.81-.16,1.72-.37,2.64-.49.44-.06.91.07,1.56.14,1.66,2.87.58,5.81-.01,8.63-.4,1.88-1.64,3.38-4.13,3.81-.08-.74-.43-1.54-.18-2.05.53-1.08,1.37-2,2.06-2.95Z"/>
    </g>
  </g>
</svg>